<svg xmlns="http://www.w3.org/2000/svg" xmlns:xlink="http://www.w3.org/1999/xlink" fill="none" version="1.1" width="1920" height="1080" viewBox="0 0 1920 1080"><defs><clipPath id="master_svg0_2_99"><rect x="0" y="0" width="1920" height="1080" rx="0"/></clipPath></defs><g clip-path="url(#master_svg0_2_99)"><rect x="0" y="0" width="1920" height="1080" rx="0" fill="#FFFFFF" fill-opacity="1"/><g><path d="M1156.41327,511.83148C1146.48245,505.22321,1120.39374,502.40130999999997,1101.42938,507.45573C1100.41162,488.77995,1090.66144,473.039192,1072.8414,459.304733L1066.24692,454.92900099999997L1061.8506499999999,461.49559C1053.2086199999999,474.462067,1049.56509,491.74475,1050.8538800000001,507.45574C1051.87164,517.13594,1055.2742600000001,528.01279,1061.8506499999999,535.90698C1037.1651299999999,550.06413,1014.40674,546.8493,913.62906,546.8493L758.036133979,546.8493C757.58445922,569.34717,761.2400134,612.6163799999999,789.075226,647.84259C792.152637,651.73611,795.519119,655.49863,799.180695,659.12427C821.812611,681.5268599999999,856.007401,697.9581900000001,907.13698,697.9998499999999C985.1442,698.07129,1051.97403,656.38568,1092.63077,555.60675C1106.00641,555.82106,1141.32126,557.97621,1158.6054100000001,524.96466C1159.02695,524.4110000000001,1163.00168,516.2132,1163.00168,516.2132L1156.41327,511.83745L1156.41327,511.83148ZM859.57864,491.26251L815.826412,491.26251L815.826412,534.51387L859.57864,534.51387L859.57864,491.26251ZM916.0981899999999,491.26251L872.34597,491.26251L872.34597,534.51387L916.0981899999999,534.51387L916.0981899999999,491.26251ZM972.62379,491.26251L928.87158,491.26251L928.87158,534.51387L972.62379,534.51387L972.62379,491.26251ZM1029.14938,491.26251L985.39716,491.26251L985.39716,534.51387L1029.14938,534.51387L1029.14938,491.26251ZM803.053047,491.26251L759.3008232,491.26251L759.3008232,534.51387L803.053051,534.51387L803.053047,491.26251ZM859.57864,436.634232L815.826412,436.634232L815.826412,479.88559L859.57864,479.88559L859.57864,436.634232ZM916.0981899999999,436.634232L872.34597,436.634232L872.34597,479.88559L916.0981899999999,479.88559L916.0981899999999,436.634232ZM972.62379,436.634232L928.87158,436.634232L928.87158,479.88559L972.62379,479.88559L972.62379,436.634232ZM972.62379,382L928.87158,382L928.87158,425.251358L972.62379,425.251358L972.62379,382Z" fill="#1D63ED" fill-opacity="1" style="mix-blend-mode:passthrough"/></g></g></svg>